<svg xmlns="http://www.w3.org/2000/svg" enable-background="new 0 0 192 192" height="192" viewBox="0 0 192 192" width="192"><rect fill="none" height="192" width="192"/><g><g><path d="M128.33,122l7.59,26.17l19.89,21.42c0,0,0,0,0,0v0c2.69-1.55,4.98-3.8,6.59-6.59l18.48-32 c1.61-2.78,2.41-5.89,2.41-9l-28.38-5.5L128.33,122z" fill="#EA4335"/><path d="M123.48,18.41c-2.69-1.55-5.78-2.41-9-2.41H77.53c-3.2,0-6.32,0.88-9,2.41l0,0l7.96,26.81l19.44,20.64 L96,66l0,0l19.58-20.89L123.48,18.41C123.48,18.41,123.48,18.41,123.48,18.41C123.48,18.41,123.48,18.41,123.48,18.41z" fill="#188038"/><path d="M63.67,122l-28.33-6.5L8.72,122c0,3.1,0.8,6.2,2.4,8.99L29.6,163c1.61,2.78,3.9,5.03,6.59,6.59 l19.59-20.18L63.67,122L63.67,122z" fill="#1967D2"/><path d="M155.47,69l-25.4-44c-1.61-2.79-3.9-5.04-6.59-6.59L96,66l32.33,56h54.95c0-3.11-0.8-6.21-2.41-9 L155.47,69z" fill="#FBBC04"/><path d="M128.33,122H63.67l-27.48,47.59c2.69,1.55,5.78,2.41,9,2.41h101.61c3.22,0,6.31-0.86,9-2.41L128.33,122z" fill="#4285F4"/><path d="M96,66L68.53,18.41c-2.69,1.55-4.97,3.79-6.58,6.57l-50.83,88.05c-1.6,2.78-2.4,5.88-2.4,8.97h54.95L96,66 z" fill="#34A853"/></g></g><g/><g/><g/></svg>