<svg width="600" height="645" viewBox="0 0 600 645" fill="none" xmlns="http://www.w3.org/2000/svg">
<path d="M296.814 1.19919L11.4858 158.387C6.74356 160.999 6.79406 167.832 11.5744 170.374L164.069 251.468C166.14 252.569 168.631 252.529 170.664 251.36L296.713 178.948C298.815 177.74 301.402 177.741 303.504 178.949L429.488 251.371C431.521 252.54 434.013 252.581 436.084 251.48L588.656 170.368C593.437 167.826 593.487 160.993 588.745 158.38L303.391 1.19902C301.344 0.0712953 298.862 0.0713586 296.814 1.19919Z" fill="currentColor"/>
<path d="M163.788 292.999L10.4639 211.488C5.92445 209.075 0.449304 212.364 0.449093 217.505L0.437866 490.454C0.437764 492.939 1.78927 495.226 3.96522 496.425L271.869 643.983C276.411 646.485 281.972 643.199 281.972 638.013V475.467C281.972 473.027 280.668 470.773 278.553 469.558L170.824 407.648C168.708 406.432 167.404 404.179 167.404 401.739V299.017C167.404 296.496 166.013 294.182 163.788 292.999Z" fill="currentColor"/>
<path d="M436.421 292.999L589.745 211.488C594.284 209.075 599.759 212.364 599.76 217.505L599.771 490.454C599.771 492.939 598.419 495.226 596.243 496.425L328.34 643.983C323.798 646.485 318.236 643.199 318.236 638.013V475.467C318.236 473.027 319.541 470.773 321.656 469.558L429.385 407.648C431.5 406.432 432.805 404.179 432.805 401.739V299.017C432.805 296.496 434.195 294.182 436.421 292.999Z" fill="currentColor"/>
</svg>
